<?xml version="1.0" encoding="UTF-8"?>
<svg width="497px" height="1014px" viewBox="0 0 497 1014" version="1.1" xmlns="http://www.w3.org/2000/svg" xmlns:xlink="http://www.w3.org/1999/xlink">
    <!-- Generator: Sketch 54.1 (76490) - https://sketchapp.com -->
    <title>Apple-iPhone-6-vector-shape</title>
    <desc>Created with Sketch.</desc>
    <g id="Page-1" stroke="none" stroke-width="1" fill="none" fill-rule="evenodd">
        <path d="M494,215 L495.501424,215 C496.33497,215 497,215.670746 497,216.498153 L497,288.501847 C497,289.328711 496.329065,290 495.501424,290 L494,290 L494,939.000599 C494,980.425004 460.418452,1014 418.993513,1014 L78.0064869,1014 C36.5793027,1014 3,980.421624 3,939.000599 L3,382 L1.49857602,382 C0.665029764,382 0,381.329254 0,380.501847 L0,308.498153 C0,307.671289 0.670935336,307 1.49857602,307 L3,307 L3,290 L1.49857602,290 C0.665029764,290 0,289.329254 0,288.501847 L0,216.498153 C0,215.671289 0.670935336,215 1.49857602,215 L3,215 L3,169 L1.49857602,169 C0.665029764,169 0,168.324919 0,167.492164 L0,129.507836 C0,128.677424 0.670935336,128 1.49857602,128 L3,128 L3,74.9994014 C3,33.5749963 36.5815481,0 78.0064869,0 L418.993513,0 C460.420697,0 494,33.5783758 494,74.9994014 L494,215 Z M33,123 L33,889 L464,889 L464,123 L33,123 Z M248,983 C268.98682,983 286,965.98682 286,945 C286,924.01318 268.98682,907 248,907 C227.01318,907 210,924.01318 210,945 C210,965.98682 227.01318,983 248,983 Z M248,979 C229.222319,979 214,963.777681 214,945 C214,926.222319 229.222319,911 248,911 C266.777681,911 282,926.222319 282,945 C282,963.777681 266.777681,979 248,979 Z M170,72 C174.418278,72 178,68.418278 178,64 C178,59.581722 174.418278,56 170,56 C165.581722,56 162,59.581722 162,64 C162,68.418278 165.581722,72 170,72 Z M249,37 C251.761424,37 254,34.7614237 254,32 C254,29.2385763 251.761424,27 249,27 C246.238576,27 244,29.2385763 244,32 C244,34.7614237 246.238576,37 249,37 Z M212.994583,60 C210.788436,60 209,61.7953562 209,64 C209,66.209139 210.78308,68 212.994583,68 L285.005417,68 C287.211564,68 289,66.2046438 289,64 C289,61.790861 287.21692,60 285.005417,60 L212.994583,60 Z" id="Apple-iPhone-6" fill="#FF5252"></path>
        <rect id="Rectangle" stroke="#93EBFF" stroke-width="16" fill-opacity="0" fill="#69D4FF" x="41" y="131" width="415" height="750"></rect>
        <text id="META" font-family="HelveticaNeue-Bold, Helvetica Neue" font-size="52" font-weight="bold" fill="#000000">
            <tspan x="173" y="198">META</tspan>
        </text>
    </g>
</svg>