<?xml version="1.0" encoding="utf-8"?>
<!-- Generator: Adobe Illustrator 22.1.0, SVG Export Plug-In . SVG Version: 6.00 Build 0)  -->
<svg version="1.1" id="Layer_1" xmlns="http://www.w3.org/2000/svg" xmlns:xlink="http://www.w3.org/1999/xlink" x="0px" y="0px"
	 viewBox="0 0 342.7 103.8" style="enable-background:new 0 0 342.7 103.8;" xml:space="preserve">
<style type="text/css">
	.st0{fill:#E54800;}
	.st1{fill:#606A70;}
</style>
<title>nearsoft-aic</title>
<path id="Shape" class="st0" d="M95.1,78.9h-6.8V56.8c0-6.2-2-9.4-8.5-9.4c-3.8,0-10.5,2.2-10.5,12v19.5h-6.5v-36H69V48h0.2
	c2.8-3.9,7.2-6.1,12-6.1c6.1,0,13.9,2.3,13.9,12.5L95.1,78.9z"/>
<path id="Shape-2" class="st0" d="M140.3,67.5c-0.9,4.1-3.4,7.7-7,9.9c-1.8,1.1-4.4,2.5-10.7,2.5c-11.1,0-17.7-7.6-17.7-18
	c0-11.1,5.9-20,19-20c11.4,0,17,8.2,17,21H112c0,7.4,3.9,11.8,11.5,11.8c6.3,0,10-4.4,10.2-7.2L140.3,67.5z M134,58
	c-0.4-5.6-2.9-10.7-11-10.7c-6,0-10.8,4.8-11,10.7H134z"/>
<path id="Shape-3" class="st0" d="M150.8,54c0.3-8.6,6.5-12,16.1-12c3.1,0,14.5,0.8,14.5,10v20.7c-0.1,1,0.6,2,1.6,2.1
	c0.2,0,0.4,0,0.5,0c0.7,0,1.5-0.1,2.2-0.3V79c-1.2,0.4-2.4,0.6-3.6,0.7c-5.8,0-6.7-2.8-7-5.5c-3.6,3.9-8.8,6-14.1,5.8
	c-7.2,0-12.3-4.2-12.3-10.4c0-3,1-10,11.9-11.3l10.8-1.2c1.6-0.1,3.4-0.7,3.4-4.3c0-3.8-3-5.8-9.2-5.8c-7.5,0-8.5,4.2-9,6.9
	L150.8,54z M174.7,60.5c-1.1,0.8-2.7,1.3-11,2.3c-3.2,0.4-8.5,1.3-8.5,5.8c0,3.9,2.2,6.2,7.2,6.2c6.2,0,12.2-3.6,12.2-8.4
	L174.7,60.5z"/>
<path id="Shape-4" class="st0" d="M202.1,78.9h-6.5v-36h6.2v6h0.1c2.6-4.2,6.1-7,11.1-7c0.6,0,1.2,0.1,1.7,0.2v6.2h-2.5
	c-6.2,0-10.2,4.4-10.2,9.7L202.1,78.9z"/>
<path id="Shape-5" class="st1" d="M244.1,53.1c-0.1-2.2-1-6-9.3-6c-2,0-7.8,0.6-7.8,5.1c0,2.9,2,3.6,7.1,4.8l6.6,1.5
	c8.2,1.8,11.1,4.6,11.1,9.4c0,7.4-6.7,11.8-15.6,11.8c-15.6,0-16.7-8.2-16.9-12.5h6.4c0.2,2.8,1.1,7.3,10.5,7.3c4.7,0,9-1.7,9-5.7
	c0-2.9-2.2-3.8-7.8-5.1l-7.6-1.8c-5.5-1.2-9.1-3.8-9.1-8.7c0-7.9,7.1-11.4,14.9-11.4c14.1,0,15,9.4,15,11.2L244.1,53.1z"/>
<path id="Shape-6" class="st1" d="M277.5,41.9c12.6,0,18.4,9.7,18.4,19s-5.8,19-18.4,19s-18.4-9.7-18.4-19S264.8,41.9,277.5,41.9z
	 M277.5,74.6c9.5,0,11.5-8.9,11.5-13.8s-2-13.8-11.5-13.8S266,56,266,60.8S267.9,74.6,277.5,74.6L277.5,74.6z"/>
<path id="Shape-7" class="st1" d="M313.7,48v30.9h-6.8V48h-5.4v-5.2h5.4v-6.2c0-5.4,3.8-7.9,10.3-7.9c1,0,2,0.1,3,0.1v5.2
	c-0.8-0.1-1.9-0.1-2.7-0.1c-2.8,0-3.8,1.3-3.8,4.3v4.6h6.5V48H313.7z"/>
<path id="Shape-8" class="st1" d="M336.5,48v23.2c0,2.8,2.6,2.8,4,2.8h2.2v4.7c-2.4,0.2-4.3,0.5-5,0.5c-6.6,0-8-3.4-8-7.7V48h-5.4
	v-5.2h5.4v-10h6.8v10h6.2V48H336.5z"/>
<path id="Shape-9" class="st0" d="M54.9,24.2c-1.5-1.1-3.2-1.7-5.1-1.7h-6.3l-2.7,2.7h8.9c1.2,0,2.5,0.4,3.5,1.1
	c0.7,0.5,1.2,1.4,1.2,2.3c0,1.8-2.2,3.4-4.7,3.4h-8.5l2.8,2.8h5.8c4.1,0,7.4-2.7,7.4-6.1C57.2,26.9,56.3,25.2,54.9,24.2z"/>
<path id="Shape-10" class="st0" d="M32,40.4h-0.1V50c0,2.5-1.5,4.6-3.4,4.6s-3.3-2.1-3.3-4.6v-9.4l-2.7,2.7v6.8c0,4,2.7,7.3,6.1,7.3
	s6.1-3.3,6.1-7.3v-7.2L32,40.4z"/>
<path id="Shape-11" class="st0" d="M28.5,0c-1.7,0-3.4,0.9-4.4,2.3c-1.1,1.4-1.7,3.2-1.7,5.1V14l2.7,2.6l0,0V7.4
	c0-1.2,0.4-2.4,1.1-3.4c0.5-0.7,1.4-1.2,2.3-1.2c1.8,0,3.4,2.1,3.4,4.6v9l2.7-2.7V7.3C34.6,3.3,31.9,0,28.5,0z"/>
<path id="Shape-12" class="st0" d="M16.3,32H7.5c-2.5,0-4.7-1.6-4.7-3.4c0-0.9,0.5-1.7,1.2-2.3c1-0.7,2.2-1.1,3.4-1.1h8.9l-2.8-2.7
	H7.4c-1.8,0-3.6,0.6-5.1,1.7c-1.4,1-2.3,2.7-2.3,4.4c0,3.4,3.3,6.1,7.4,6.1h6.1L16.3,32z"/>
<path id="Shape-13" class="st1" d="M48.6,39.2L44,34.8l-2.9-2.8l-0.3-0.3c-0.9-0.8-1.4-2-1.4-3.2c0-1.2,0.5-2.3,1.3-3.2l0,0l2.8-2.8
	l4.3-4.3c1.5-1.5,2.4-3.5,2.5-5.6c0-1.5-0.6-2.9-1.6-4c-2.4-2.4-6.7-2-9.7,0.9l-4.3,4.2L32,16.5l-0.1,0.1c-1.9,1.8-4.8,1.8-6.6,0
	l0,0l-2.9-2.7l-4.9-4.7C14.6,6.3,10.2,6,7.8,8.3c-1.1,1.1-1.6,2.5-1.6,4c0.1,2.1,1,4.1,2.5,5.6l4.7,4.6l2.9,2.8l0,0
	c1.8,1.7,1.8,4.5,0.1,6.3c0,0-0.1,0.1-0.1,0.1l-0.2,0.2l-2.9,2.8l-4.1,4c-1.5,1.5-2.4,3.5-2.4,5.6c0,1.5,0.6,2.9,1.6,4
	c2.5,2.4,6.8,1.9,9.7-0.9l4.2-4.1l2.8-2.8l0.2-0.2c1.8-1.8,4.7-1.8,6.6-0.1l0.1,0.1l2.7,2.7l5.1,4.9c2.9,2.8,7.3,3.2,9.7,0.8
	c1.1-1.1,1.6-2.5,1.6-4C51.1,42.6,50.2,40.6,48.6,39.2z M47.6,46.7c-1.3,1.3-3.9,0.9-5.7-0.9L34,38.3c-3-2.8-7.7-2.8-10.6,0.1
	l-7.2,7.1c-1.8,1.8-4.4,2.2-5.8,0.9c-0.5-0.5-0.8-1.3-0.8-2c0.1-1.4,0.6-2.6,1.6-3.6l7.2-7.1c2.9-2.8,2.9-7.5,0.1-10.3
	c0,0-0.1-0.1-0.1-0.1l-7.7-7.4c-1-0.9-1.6-2.2-1.7-3.6c0-0.7,0.2-1.4,0.7-1.9c1.3-1.3,3.9-0.9,5.7,0.9l7.7,7.4
	c3,2.8,7.7,2.8,10.6-0.1l7.2-7.1c1.8-1.8,4.4-2.2,5.8-0.9c0.5,0.5,0.8,1.3,0.8,2c-0.1,1.4-0.6,2.6-1.6,3.6l-7.2,7.1
	c-2.9,2.8-2.9,7.4-0.1,10.3c0.1,0.1,0.1,0.1,0.2,0.2l7.8,7.6c1,0.9,1.6,2.2,1.7,3.6C48.3,45.5,48.1,46.2,47.6,46.7z"/>
<g>
	<path class="st1" d="M69.5,99.8v-1.2c-0.3,0.4-0.8,0.7-1.3,1c-0.5,0.3-1.2,0.4-1.9,0.4c-0.5,0-0.9-0.1-1.3-0.2
		c-0.4-0.1-0.8-0.3-1.1-0.6c-0.3-0.3-0.6-0.6-0.8-1c-0.2-0.4-0.3-0.8-0.3-1.3v0c0-0.6,0.1-1,0.3-1.4c0.2-0.4,0.5-0.7,0.8-1
		c0.4-0.3,0.8-0.5,1.3-0.6c0.5-0.1,1-0.2,1.6-0.2c0.6,0,1.1,0,1.5,0.1c0.4,0.1,0.8,0.2,1.2,0.3v-0.2c0-0.7-0.2-1.2-0.6-1.6
		c-0.4-0.4-1-0.5-1.8-0.5c-0.6,0-1.1,0.1-1.5,0.2c-0.4,0.1-0.9,0.3-1.3,0.5l-0.6-1.8c0.5-0.3,1.1-0.5,1.7-0.6
		c0.6-0.2,1.3-0.2,2.1-0.2c1.5,0,2.6,0.4,3.3,1.1c0.7,0.7,1.1,1.8,1.1,3.1v5.9H69.5z M69.6,95.6c-0.3-0.1-0.6-0.2-1-0.3
		s-0.8-0.1-1.2-0.1c-0.7,0-1.3,0.1-1.7,0.4c-0.4,0.3-0.6,0.7-0.6,1.1v0c0,0.5,0.2,0.8,0.6,1.1c0.4,0.3,0.8,0.4,1.4,0.4
		c0.4,0,0.7-0.1,1-0.2c0.3-0.1,0.6-0.2,0.8-0.4c0.2-0.2,0.4-0.4,0.6-0.7c0.1-0.3,0.2-0.5,0.2-0.9V95.6z"/>
	<path class="st1" d="M77.9,89.8h2.3v1.6c0.2-0.2,0.3-0.5,0.5-0.7c0.2-0.2,0.4-0.4,0.7-0.6c0.3-0.2,0.5-0.3,0.8-0.4
		c0.3-0.1,0.7-0.1,1-0.1c1.1,0,2,0.3,2.6,1c0.6,0.7,0.9,1.6,0.9,2.8v6.3h-2.3v-5.7c0-0.8-0.2-1.4-0.5-1.8c-0.4-0.4-0.9-0.6-1.6-0.6
		c-0.7,0-1.2,0.2-1.6,0.7c-0.4,0.4-0.6,1-0.6,1.8v5.6h-2.3V89.8z"/>
	<path class="st1" d="M101.9,86.1h2.5v2.2h-2.5V86.1z M102,89.8h2.3v10H102V89.8z"/>
	<path class="st1" d="M110.6,89.8h2.3v1.6c0.2-0.2,0.3-0.5,0.5-0.7c0.2-0.2,0.4-0.4,0.7-0.6c0.3-0.2,0.5-0.3,0.8-0.4
		c0.3-0.1,0.7-0.1,1-0.1c1.1,0,2,0.3,2.6,1c0.6,0.7,0.9,1.6,0.9,2.8v6.3h-2.3v-5.7c0-0.8-0.2-1.4-0.5-1.8c-0.4-0.4-0.9-0.6-1.6-0.6
		c-0.7,0-1.2,0.2-1.6,0.7c-0.4,0.4-0.6,1-0.6,1.8v5.6h-2.3V89.8z"/>
	<path class="st1" d="M129.6,100c-0.6,0-1.2-0.1-1.7-0.3s-1-0.6-1.5-1c-0.4-0.4-0.8-1-1-1.6c-0.3-0.6-0.4-1.4-0.4-2.2v0
		c0-0.8,0.1-1.6,0.4-2.2c0.3-0.6,0.6-1.2,1-1.6c0.4-0.4,0.9-0.8,1.5-1c0.6-0.2,1.1-0.3,1.7-0.3c0.8,0,1.5,0.2,2,0.5
		c0.5,0.4,1,0.8,1.3,1.2V86h2.3v13.8H133l0-1.7c-0.4,0.5-0.8,1-1.4,1.3C131.1,99.8,130.4,100,129.6,100z M130.2,98
		c0.4,0,0.7-0.1,1.1-0.2c0.3-0.2,0.7-0.4,0.9-0.7c0.3-0.3,0.5-0.6,0.6-1c0.2-0.4,0.2-0.8,0.2-1.3v0c0-0.5-0.1-0.9-0.2-1.3
		c-0.2-0.4-0.4-0.7-0.6-1c-0.3-0.3-0.6-0.5-0.9-0.6c-0.3-0.2-0.7-0.2-1.1-0.2c-0.4,0-0.7,0.1-1.1,0.2c-0.3,0.1-0.6,0.4-0.9,0.6
		c-0.3,0.3-0.5,0.6-0.6,1s-0.2,0.8-0.2,1.3v0c0,0.5,0.1,0.9,0.2,1.3s0.4,0.7,0.6,1c0.3,0.3,0.6,0.5,0.9,0.6
		C129.4,97.9,129.8,98,130.2,98z"/>
	<path class="st1" d="M146,100c-0.7,0-1.4-0.1-2-0.4c-0.6-0.3-1.2-0.6-1.6-1.1c-0.5-0.5-0.8-1-1.1-1.6c-0.3-0.6-0.4-1.3-0.4-2.1v0
		c0-0.7,0.1-1.4,0.4-2s0.6-1.2,1-1.7c0.4-0.5,0.9-0.8,1.5-1.1c0.6-0.3,1.2-0.4,1.9-0.4c0.8,0,1.5,0.1,2.1,0.4
		c0.6,0.3,1.1,0.7,1.5,1.2c0.4,0.5,0.7,1.1,0.9,1.7c0.2,0.6,0.3,1.3,0.3,2c0,0.1,0,0.2,0,0.3c0,0.1,0,0.2,0,0.3h-7.3
		c0.1,0.8,0.4,1.4,1,1.9c0.5,0.4,1.1,0.7,1.9,0.7c0.6,0,1-0.1,1.5-0.3c0.4-0.2,0.8-0.5,1.2-0.9l1.3,1.2c-0.5,0.6-1,1-1.7,1.4
		C147.7,99.8,146.9,100,146,100z M148.3,94.1c0-0.4-0.1-0.7-0.2-1c-0.1-0.3-0.3-0.6-0.5-0.8c-0.2-0.2-0.5-0.4-0.8-0.6
		c-0.3-0.1-0.6-0.2-1-0.2c-0.7,0-1.3,0.2-1.7,0.7s-0.7,1.1-0.8,1.9H148.3z"/>
	<path class="st1" d="M160.8,100c-0.7,0-1.4-0.1-2-0.4c-0.6-0.3-1.2-0.6-1.6-1.1c-0.5-0.5-0.8-1-1.1-1.6c-0.3-0.6-0.4-1.3-0.4-2v0
		c0-0.7,0.1-1.4,0.4-2c0.3-0.6,0.6-1.2,1.1-1.7c0.5-0.5,1-0.8,1.6-1.1c0.6-0.3,1.3-0.4,2.1-0.4c0.9,0,1.7,0.2,2.3,0.5
		c0.6,0.3,1.2,0.7,1.6,1.2l-1.4,1.5c-0.3-0.4-0.7-0.7-1.1-0.9c-0.4-0.2-0.9-0.3-1.5-0.3c-0.4,0-0.8,0.1-1.1,0.3
		c-0.3,0.2-0.6,0.4-0.9,0.7c-0.3,0.3-0.4,0.6-0.6,1c-0.1,0.4-0.2,0.8-0.2,1.2v0c0,0.4,0.1,0.9,0.2,1.2c0.1,0.4,0.3,0.7,0.6,1
		c0.3,0.3,0.6,0.5,0.9,0.7c0.4,0.2,0.8,0.3,1.2,0.3c0.5,0,1-0.1,1.4-0.3c0.4-0.2,0.8-0.5,1.2-0.9l1.4,1.4c-0.5,0.6-1,1-1.7,1.4
		C162.5,99.8,161.7,100,160.8,100z"/>
	<path class="st1" d="M174.9,100c-0.7,0-1.4-0.1-2.1-0.4c-0.6-0.3-1.2-0.6-1.7-1.1s-0.8-1-1.1-1.6c-0.3-0.6-0.4-1.3-0.4-2v0
		c0-0.7,0.1-1.4,0.4-2c0.3-0.6,0.6-1.2,1.1-1.7c0.5-0.5,1-0.8,1.7-1.1c0.6-0.3,1.3-0.4,2.1-0.4c0.8,0,1.5,0.1,2.1,0.4
		c0.6,0.3,1.2,0.6,1.7,1.1c0.5,0.5,0.8,1,1.1,1.6c0.3,0.6,0.4,1.3,0.4,2v0c0,0.7-0.1,1.4-0.4,2c-0.3,0.6-0.6,1.2-1.1,1.7
		c-0.5,0.5-1,0.8-1.7,1.1C176.4,99.9,175.7,100,174.9,100z M175,98c0.5,0,0.9-0.1,1.2-0.3c0.4-0.2,0.7-0.4,0.9-0.7
		c0.3-0.3,0.5-0.6,0.6-1c0.1-0.4,0.2-0.8,0.2-1.2v0c0-0.4-0.1-0.9-0.2-1.2c-0.1-0.4-0.4-0.7-0.6-1c-0.3-0.3-0.6-0.5-0.9-0.7
		c-0.4-0.2-0.8-0.3-1.2-0.3c-0.4,0-0.9,0.1-1.2,0.3c-0.4,0.2-0.7,0.4-0.9,0.7c-0.3,0.3-0.5,0.6-0.6,1c-0.1,0.4-0.2,0.8-0.2,1.2v0
		c0,0.4,0.1,0.9,0.2,1.2c0.1,0.4,0.4,0.7,0.6,1c0.3,0.3,0.6,0.5,0.9,0.7C174.1,97.9,174.5,98,175,98z"/>
	<path class="st1" d="M185.9,89.8h2.3v1.5c0.2-0.2,0.3-0.4,0.5-0.6c0.2-0.2,0.4-0.4,0.6-0.6c0.2-0.2,0.5-0.3,0.8-0.4
		c0.3-0.1,0.6-0.1,1-0.1c0.7,0,1.3,0.2,1.8,0.5c0.5,0.3,0.9,0.8,1.1,1.3c0.4-0.5,0.9-1,1.4-1.3c0.5-0.3,1.2-0.5,1.9-0.5
		c1.1,0,1.9,0.3,2.6,1c0.6,0.7,0.9,1.6,0.9,2.8v6.4h-2.3v-5.7c0-0.8-0.2-1.4-0.5-1.8c-0.3-0.4-0.8-0.6-1.5-0.6
		c-0.6,0-1.1,0.2-1.5,0.6c-0.4,0.4-0.6,1-0.6,1.8v5.6h-2.3v-5.7c0-0.8-0.2-1.4-0.5-1.8c-0.3-0.4-0.8-0.6-1.5-0.6
		c-0.6,0-1.1,0.2-1.5,0.7c-0.4,0.4-0.6,1-0.6,1.8v5.6h-2.3V89.8z"/>
	<path class="st1" d="M207.1,89.8h2.3v1.5c0.2-0.2,0.3-0.4,0.5-0.6c0.2-0.2,0.4-0.4,0.6-0.6c0.2-0.2,0.5-0.3,0.8-0.4
		c0.3-0.1,0.6-0.1,1-0.1c0.7,0,1.3,0.2,1.8,0.5c0.5,0.3,0.9,0.8,1.1,1.3c0.4-0.5,0.9-1,1.4-1.3c0.5-0.3,1.2-0.5,1.9-0.5
		c1.1,0,1.9,0.3,2.6,1c0.6,0.7,0.9,1.6,0.9,2.8v6.4h-2.3v-5.7c0-0.8-0.2-1.4-0.5-1.8c-0.3-0.4-0.8-0.6-1.5-0.6
		c-0.6,0-1.1,0.2-1.5,0.6c-0.4,0.4-0.6,1-0.6,1.8v5.6h-2.3v-5.7c0-0.8-0.2-1.4-0.5-1.8c-0.3-0.4-0.8-0.6-1.5-0.6
		c-0.6,0-1.1,0.2-1.5,0.7c-0.4,0.4-0.6,1-0.6,1.8v5.6h-2.3V89.8z"/>
	<path class="st1" d="M241.8,100c-0.7,0-1.4-0.1-2-0.4c-0.6-0.3-1.2-0.6-1.6-1.1c-0.5-0.5-0.8-1-1.1-1.6c-0.3-0.6-0.4-1.3-0.4-2v0
		c0-0.7,0.1-1.4,0.4-2c0.3-0.6,0.6-1.2,1.1-1.7c0.5-0.5,1-0.8,1.6-1.1c0.6-0.3,1.3-0.4,2.1-0.4c0.9,0,1.7,0.2,2.3,0.5
		c0.6,0.3,1.2,0.7,1.6,1.2l-1.4,1.5c-0.3-0.4-0.7-0.7-1.1-0.9c-0.4-0.2-0.9-0.3-1.5-0.3c-0.4,0-0.8,0.1-1.1,0.3
		c-0.4,0.2-0.6,0.4-0.9,0.7c-0.2,0.3-0.4,0.6-0.6,1c-0.1,0.4-0.2,0.8-0.2,1.2v0c0,0.4,0.1,0.9,0.2,1.2c0.1,0.4,0.3,0.7,0.6,1
		c0.3,0.3,0.6,0.5,0.9,0.7c0.4,0.2,0.8,0.3,1.2,0.3c0.5,0,1-0.1,1.4-0.3c0.4-0.2,0.8-0.5,1.2-0.9l1.4,1.4c-0.5,0.6-1,1-1.7,1.4
		C243.6,99.8,242.8,100,241.8,100z"/>
	<path class="st1" d="M256,100c-0.7,0-1.4-0.1-2.1-0.4c-0.6-0.3-1.2-0.6-1.7-1.1c-0.5-0.5-0.8-1-1.1-1.6c-0.3-0.6-0.4-1.3-0.4-2v0
		c0-0.7,0.1-1.4,0.4-2c0.3-0.6,0.6-1.2,1.1-1.7c0.5-0.5,1-0.8,1.7-1.1c0.6-0.3,1.3-0.4,2.1-0.4c0.8,0,1.5,0.1,2.1,0.4
		s1.2,0.6,1.7,1.1c0.5,0.5,0.8,1,1.1,1.6c0.3,0.6,0.4,1.3,0.4,2v0c0,0.7-0.1,1.4-0.4,2c-0.3,0.6-0.6,1.2-1.1,1.7
		c-0.5,0.5-1,0.8-1.7,1.1C257.5,99.9,256.8,100,256,100z M256.1,98c0.5,0,0.9-0.1,1.2-0.3c0.4-0.2,0.7-0.4,0.9-0.7
		c0.3-0.3,0.5-0.6,0.6-1c0.1-0.4,0.2-0.8,0.2-1.2v0c0-0.4-0.1-0.9-0.2-1.2c-0.1-0.4-0.4-0.7-0.6-1s-0.6-0.5-0.9-0.7
		c-0.4-0.2-0.8-0.3-1.2-0.3c-0.4,0-0.9,0.1-1.2,0.3c-0.4,0.2-0.7,0.4-0.9,0.7c-0.3,0.3-0.5,0.6-0.6,1c-0.1,0.4-0.2,0.8-0.2,1.2v0
		c0,0.4,0.1,0.9,0.2,1.2c0.1,0.4,0.4,0.7,0.6,1c0.3,0.3,0.6,0.5,1,0.7C255.2,97.9,255.6,98,256.1,98z"/>
	<path class="st1" d="M267,89.8h2.3v1.5c0.2-0.2,0.3-0.4,0.5-0.6c0.2-0.2,0.4-0.4,0.6-0.6c0.2-0.2,0.5-0.3,0.8-0.4
		c0.3-0.1,0.6-0.1,1-0.1c0.7,0,1.3,0.2,1.8,0.5c0.5,0.3,0.9,0.8,1.1,1.3c0.4-0.5,0.9-1,1.4-1.3c0.5-0.3,1.2-0.5,1.9-0.5
		c1.1,0,1.9,0.3,2.6,1c0.6,0.7,0.9,1.6,0.9,2.8v6.4h-2.3v-5.7c0-0.8-0.2-1.4-0.5-1.8c-0.3-0.4-0.8-0.6-1.5-0.6
		c-0.6,0-1.1,0.2-1.5,0.6c-0.4,0.4-0.6,1-0.6,1.8v5.6h-2.3v-5.7c0-0.8-0.2-1.4-0.5-1.8c-0.3-0.4-0.8-0.6-1.5-0.6
		c-0.6,0-1.1,0.2-1.5,0.7c-0.4,0.4-0.6,1-0.6,1.8v5.6H267V89.8z"/>
	<path class="st1" d="M288.2,89.8h2.3v1.7c0.4-0.5,0.8-1,1.3-1.3c0.5-0.4,1.2-0.5,2-0.5c0.6,0,1.2,0.1,1.7,0.3c0.5,0.2,1,0.6,1.5,1
		c0.4,0.4,0.8,1,1,1.6c0.3,0.6,0.4,1.4,0.4,2.2v0c0,0.8-0.1,1.6-0.4,2.2c-0.3,0.6-0.6,1.2-1,1.6c-0.4,0.4-0.9,0.8-1.5,1
		c-0.6,0.2-1.1,0.3-1.7,0.3c-0.8,0-1.5-0.2-2-0.5c-0.5-0.4-1-0.8-1.3-1.2v4.6h-2.3V89.8z M293.3,98c0.4,0,0.8-0.1,1.1-0.2
		c0.3-0.2,0.6-0.4,0.9-0.6c0.3-0.3,0.5-0.6,0.6-1c0.1-0.4,0.2-0.8,0.2-1.3v0c0-0.5-0.1-0.9-0.2-1.3c-0.2-0.4-0.4-0.7-0.6-1
		c-0.3-0.3-0.6-0.5-0.9-0.6c-0.3-0.2-0.7-0.2-1.1-0.2c-0.4,0-0.8,0.1-1.1,0.2c-0.3,0.2-0.7,0.4-0.9,0.7c-0.3,0.3-0.5,0.6-0.6,1
		c-0.2,0.4-0.2,0.8-0.2,1.3v0c0,0.5,0.1,0.9,0.2,1.3c0.2,0.4,0.4,0.7,0.6,1s0.6,0.5,0.9,0.6C292.5,97.9,292.9,98,293.3,98z"/>
	<path class="st1" d="M310.1,99.8v-1.2c-0.3,0.4-0.8,0.7-1.3,1c-0.5,0.3-1.2,0.4-1.9,0.4c-0.5,0-0.9-0.1-1.3-0.2
		c-0.4-0.1-0.8-0.3-1.1-0.6c-0.3-0.3-0.6-0.6-0.8-1c-0.2-0.4-0.3-0.8-0.3-1.3v0c0-0.6,0.1-1,0.3-1.4c0.2-0.4,0.5-0.7,0.8-1
		c0.4-0.3,0.8-0.5,1.3-0.6c0.5-0.1,1-0.2,1.6-0.2c0.6,0,1.1,0,1.5,0.1c0.4,0.1,0.8,0.2,1.2,0.3v-0.2c0-0.7-0.2-1.2-0.6-1.6
		c-0.4-0.4-1-0.5-1.8-0.5c-0.6,0-1.1,0.1-1.5,0.2c-0.4,0.1-0.9,0.3-1.3,0.5l-0.6-1.8c0.5-0.3,1.1-0.5,1.7-0.6
		c0.6-0.2,1.3-0.2,2.1-0.2c1.5,0,2.6,0.4,3.3,1.1c0.7,0.7,1.1,1.8,1.1,3.1v5.9H310.1z M310.2,95.6c-0.3-0.1-0.6-0.2-1-0.3
		c-0.4-0.1-0.8-0.1-1.2-0.1c-0.7,0-1.3,0.1-1.7,0.4c-0.4,0.3-0.6,0.7-0.6,1.1v0c0,0.5,0.2,0.8,0.6,1.1c0.4,0.3,0.8,0.4,1.4,0.4
		c0.4,0,0.7-0.1,1-0.2c0.3-0.1,0.6-0.2,0.8-0.4c0.2-0.2,0.4-0.4,0.6-0.7c0.1-0.3,0.2-0.5,0.2-0.9V95.6z"/>
	<path class="st1" d="M318.5,89.8h2.3v1.6c0.2-0.2,0.3-0.5,0.5-0.7c0.2-0.2,0.4-0.4,0.7-0.6c0.3-0.2,0.5-0.3,0.8-0.4
		c0.3-0.1,0.7-0.1,1-0.1c1.1,0,2,0.3,2.6,1c0.6,0.7,0.9,1.6,0.9,2.8v6.3h-2.3v-5.7c0-0.8-0.2-1.4-0.5-1.8c-0.4-0.4-0.9-0.6-1.6-0.6
		c-0.7,0-1.2,0.2-1.6,0.7c-0.4,0.4-0.6,1-0.6,1.8v5.6h-2.3V89.8z"/>
	<path class="st1" d="M335.5,102.9c-0.5,0-0.9-0.1-1.3-0.2c-0.4-0.1-0.7-0.3-1.1-0.4l0.8-1.7c0.2,0.1,0.4,0.2,0.6,0.3
		c0.2,0.1,0.4,0.1,0.7,0.1c0.3,0,0.6-0.1,0.8-0.2c0.2-0.2,0.4-0.5,0.6-0.9l-4.1-10h2.4l2.8,7.4l2.6-7.4h2.4l-3.9,10.3
		c-0.2,0.5-0.4,1-0.6,1.3c-0.2,0.4-0.4,0.6-0.7,0.9c-0.3,0.2-0.6,0.4-0.9,0.5C336.2,102.8,335.9,102.9,335.5,102.9z"/>
</g>
</svg>
